<svg id="svg" version="1.1" xmlns="http://www.w3.org/2000/svg" xmlns:xlink="http://www.w3.org/1999/xlink" width="400" height="400" viewBox="0, 0, 400,400"><g id="svgg"><path id="path0" d="M75.000 75.000 L 75.000 125.000 91.105 125.000 C 109.221 125.000,127.581 113.045,133.541 97.369 C 139.689 81.200,162.500 83.272,162.500 100.000 C 162.500 111.111,163.889 112.500,175.000 112.500 C 186.111 112.500,187.500 113.889,187.500 125.000 C 187.500 137.017,186.784 137.500,168.946 137.500 C 142.563 137.500,140.545 146.005,138.557 265.625 L 136.946 362.500 162.223 362.500 C 181.914 362.500,187.500 363.881,187.500 368.750 C 187.500 372.917,191.667 375.000,200.000 375.000 C 208.333 375.000,212.500 372.917,212.500 368.750 C 212.500 363.881,218.086 362.500,237.777 362.500 L 263.054 362.500 261.443 265.625 C 259.455 146.005,257.437 137.500,231.054 137.500 C 213.216 137.500,212.500 137.017,212.500 125.000 C 212.500 113.889,213.889 112.500,225.000 112.500 C 236.169 112.500,237.500 111.140,237.500 99.736 C 237.500 83.138,263.555 82.349,265.904 98.875 C 273.092 149.450,350.000 127.616,350.000 75.000 C 350.000 22.384,273.092 0.550,265.904 51.125 C 263.555 67.651,237.500 66.862,237.500 50.264 L 237.500 37.500 200.000 37.500 L 162.500 37.500 162.500 50.000 C 162.500 66.728,139.689 68.800,133.541 52.631 C 127.581 36.955,109.221 25.000,91.105 25.000 L 75.000 25.000 75.000 75.000 M318.750 75.000 C 318.750 100.385,294.805 104.760,292.415 79.812 C 290.453 59.337,293.996 53.403,307.268 54.929 C 317.903 56.153,318.750 57.633,318.750 75.000 M108.333 75.000 C 108.333 81.605,106.458 88.167,104.167 89.583 C 101.647 91.141,100.000 85.378,100.000 75.000 C 100.000 64.622,101.647 58.859,104.167 60.417 C 106.458 61.833,108.333 68.395,108.333 75.000 M212.500 75.000 C 212.500 86.111,211.111 87.500,200.000 87.500 C 188.889 87.500,187.500 86.111,187.500 75.000 C 187.500 63.889,188.889 62.500,200.000 62.500 C 211.111 62.500,212.500 63.889,212.500 75.000 M226.638 169.091 C 232.945 185.528,230.093 187.500,200.000 187.500 C 169.907 187.500,167.055 185.528,173.362 169.091 C 176.992 159.632,223.008 159.632,226.638 169.091 M237.500 225.000 C 237.500 236.111,236.111 237.500,225.000 237.500 C 213.889 237.500,212.500 238.889,212.500 250.000 C 212.500 261.111,213.889 262.500,225.000 262.500 C 236.111 262.500,237.500 263.889,237.500 275.000 C 237.500 286.111,236.111 287.500,225.000 287.500 C 213.889 287.500,212.500 288.889,212.500 300.000 C 212.500 311.111,213.889 312.500,225.000 312.500 C 236.111 312.500,237.500 313.889,237.500 325.000 L 237.500 337.500 200.000 337.500 L 162.500 337.500 162.500 325.000 C 162.500 313.889,163.889 312.500,175.000 312.500 C 186.111 312.500,187.500 311.111,187.500 300.000 C 187.500 288.889,186.111 287.500,175.000 287.500 C 163.889 287.500,162.500 286.111,162.500 275.000 C 162.500 263.889,163.889 262.500,175.000 262.500 C 186.111 262.500,187.500 261.111,187.500 250.000 C 187.500 238.889,186.111 237.500,175.000 237.500 C 163.889 237.500,162.500 236.111,162.500 225.000 L 162.500 212.500 200.000 212.500 L 237.500 212.500 237.500 225.000 " stroke="none" fill="#000000" fill-rule="evenodd"></path></g></svg>