<svg id="svg" xmlns="http://www.w3.org/2000/svg" xmlns:xlink="http://www.w3.org/1999/xlink" width="400" height="492.4731182795699" viewBox="0, 0, 400,492.4731182795699"><g id="svgg"><path id="path0" d="M181.978 26.063 C 45.391 41.663,-17.377 204.122,73.985 305.575 C 76.613 308.493,79.247 311.665,79.839 312.623 C 83.227 318.111,199.661 458.602,200.821 458.602 C 201.820 458.602,213.700 444.369,261.514 385.887 C 294.211 345.894,323.127 310.753,325.770 307.796 C 362.013 267.254,377.104 216.497,368.212 165.054 C 353.085 77.544,270.551 15.947,181.978 26.063 M225.000 31.089 C 356.764 51.696,411.887 205.941,322.757 304.632 C 320.590 307.031,318.817 309.249,318.817 309.561 C 318.817 309.872,317.910 311.104,316.801 312.297 C 315.692 313.490,314.180 315.196,313.441 316.088 C 312.702 316.980,311.794 317.717,311.425 317.726 C 311.055 317.735,310.753 318.105,310.753 318.548 C 310.753 318.992,310.390 319.355,309.946 319.355 C 309.498 319.355,309.140 319.833,309.140 320.430 C 309.140 321.022,308.898 321.505,308.602 321.505 C 308.306 321.505,308.065 321.843,308.065 322.257 C 308.065 322.670,306.856 324.303,305.379 325.886 C 303.903 327.468,280.052 356.465,252.378 390.323 C 224.704 424.180,201.764 452.190,201.401 452.567 C 200.873 453.116,190.458 440.749,149.333 390.740 C 121.059 356.357,97.070 327.379,96.023 326.344 C 94.976 325.309,94.112 324.160,94.103 323.790 C 94.094 323.421,93.844 323.118,93.548 323.118 C 93.253 323.118,93.011 322.809,93.011 322.431 C 93.011 322.052,92.527 321.394,91.935 320.968 C 91.344 320.541,90.860 319.937,90.860 319.624 C 90.860 319.311,90.376 318.706,89.785 318.280 C 89.194 317.853,88.710 317.248,88.710 316.935 C 88.710 316.622,88.226 316.018,87.634 315.591 C 87.043 315.165,86.559 314.405,86.559 313.901 C 86.559 313.398,85.878 312.302,85.046 311.466 C 9.965 236.057,21.544 114.977,109.409 56.713 C 142.482 34.782,186.383 25.050,225.000 31.089 M131.043 77.188 C 108.541 81.295,91.314 98.681,87.377 121.255 C 86.151 128.289,86.151 250.205,87.377 257.240 C 91.083 278.488,106.712 295.309,127.720 300.658 L 132.527 301.882 199.194 301.882 C 262.193 301.882,266.097 301.827,270.161 300.885 C 289.959 296.299,305.560 281.110,310.853 261.267 L 312.066 256.720 312.230 191.451 C 312.373 134.640,312.287 125.560,311.568 121.389 C 307.879 100.014,292.661 83.568,271.237 77.801 C 265.658 76.299,138.946 75.745,131.043 77.188 M267.622 88.140 C 283.927 91.505,297.205 104.782,300.570 121.087 C 301.953 127.793,302.198 249.064,300.842 256.001 C 297.548 272.845,285.903 285.466,269.355 290.125 C 263.715 291.713,139.102 291.939,131.448 290.376 C 114.946 287.005,101.704 273.760,98.332 257.252 C 96.787 249.689,97.009 124.361,98.577 119.086 C 103.435 102.743,116.997 90.347,132.923 87.694 C 139.428 86.610,262.179 87.017,267.622 88.140 M229.014 125.498 C 217.488 127.911,205.750 136.112,200.495 145.422 C 198.339 149.243,198.542 149.171,193.969 147.747 C 173.688 141.430,150.609 154.158,143.195 175.749 L 141.422 180.914 137.914 182.796 C 110.360 197.577,113.653 237.351,143.163 246.202 C 145.297 246.842,147.786 247.595,148.694 247.876 C 151.714 248.811,223.514 248.531,228.383 247.566 C 246.010 244.071,259.600 226.787,258.477 209.293 L 258.222 205.310 261.235 203.263 C 280.364 190.268,285.768 163.651,273.164 144.512 C 263.544 129.905,245.362 122.074,229.014 125.498 M244.841 136.546 C 270.651 143.147,277.882 176.464,257.079 192.939 L 255.033 194.560 252.382 190.492 C 246.719 181.801,237.295 175.669,227.110 174.049 L 223.004 173.395 221.643 170.703 C 218.794 165.069,214.325 159.452,209.707 155.699 L 207.854 154.194 209.151 151.694 C 215.233 139.963,231.390 133.106,244.841 136.546 M190.054 157.798 C 200.701 160.033,209.651 167.874,213.725 178.534 C 215.389 182.888,216.712 183.871,220.915 183.871 C 244.721 183.871,256.675 212.776,239.833 229.618 C 231.907 237.543,231.334 237.634,189.341 237.634 C 144.876 237.634,143.985 237.512,136.789 230.384 C 123.319 217.042,128.795 197.163,147.955 189.850 C 149.988 189.074,150.885 187.446,151.843 182.796 C 155.433 165.361,172.596 154.133,190.054 157.798 " stroke="none" fill="#000000" fill-rule="evenodd"></path></g></svg>